<?xml version="1.0" standalone="no"?>
<!DOCTYPE svg PUBLIC "-//W3C//DTD SVG 20010904//EN"
 "http://www.w3.org/TR/2001/REC-SVG-20010904/DTD/svg10.dtd">
<svg version="1.0" xmlns="http://www.w3.org/2000/svg"
 width="391.000000pt" height="391.000000pt" viewBox="0 0 391.000000 391.000000"
 preserveAspectRatio="xMidYMid meet">
<metadata>
Created by potrace 1.14, written by Peter Selinger 2001-2017
</metadata>
<g transform="translate(0.000000,391.000000) scale(0.100000,-0.100000)"
fill="#000000" stroke="none">
<path d="M1840 2295 l0 -115 -100 0 -100 0 0 -65 0 -65 100 0 100 0 0 -280 0
-280 55 0 55 0 0 280 0 280 100 0 100 0 0 65 0 65 -100 0 -100 0 0 115 0 115
-55 0 -55 0 0 -115z"/>
<path d="M3380 2254 c-65 -65 -163 -133 -254 -174 -35 -16 -67 -34 -71 -40 -4
-6 12 -33 35 -60 l42 -50 50 26 50 25 15 -20 c13 -20 23 -21 193 -21 l180 0
16 25 16 24 47 -24 c26 -13 52 -20 58 -17 16 10 73 83 73 93 0 5 -51 33 -112
62 -137 66 -204 112 -189 131 8 10 6 17 -7 28 -15 14 -76 48 -84 48 -2 0 -28
-25 -58 -56z m110 -157 c16 -12 29 -25 29 -29 1 -5 -36 -8 -81 -8 l-83 0 40
35 c43 37 52 37 95 2z"/>
<path d="M2377 2294 c-4 -4 -7 -20 -7 -36 0 -25 -3 -28 -33 -28 -43 0 -57 -15
-57 -61 0 -43 12 -56 60 -62 28 -3 25 -4 -16 -5 -60 -2 -74 -14 -74 -62 0 -49
14 -60 85 -61 48 -1 53 -3 25 -8 -26 -4 -36 -12 -38 -29 -2 -12 -16 -29 -31
-36 -50 -26 -54 -39 -22 -76 28 -34 28 -35 7 -45 -25 -12 -33 -63 -16 -95 10
-19 19 -21 78 -18 63 3 67 2 70 -19 3 -20 -1 -23 -30 -23 -47 0 -58 -14 -45
-56 17 -54 36 -66 96 -58 77 10 95 29 101 106 l5 63 60 10 c76 13 85 19 85 59
0 46 -21 60 -83 57 l-52 -2 39 40 40 41 23 -22 c20 -19 27 -20 44 -10 17 11
21 9 29 -15 6 -16 16 -41 22 -57 11 -27 9 -31 -44 -80 -31 -28 -69 -61 -85
-73 l-28 -21 19 -36 c10 -20 27 -43 37 -51 16 -15 21 -14 61 10 23 15 59 43
79 62 l37 35 40 -44 c22 -23 54 -51 70 -60 l30 -18 36 44 c20 25 36 49 36 55
0 5 -18 24 -40 42 -21 17 -50 48 -64 68 l-26 36 24 60 c13 33 32 95 41 138 14
65 21 80 41 87 20 8 24 16 24 53 0 24 -5 48 -12 55 -8 8 -46 12 -104 12 l-91
0 10 50 c13 66 7 77 -48 85 -50 8 -75 -4 -75 -36 0 -18 -2 -18 -22 -5 -13 8
-38 17 -56 21 -29 6 -34 3 -50 -24 -10 -18 -23 -29 -30 -26 -8 3 -24 5 -37 5
-19 0 -24 6 -27 33 -3 31 -5 32 -53 35 -28 2 -54 0 -58 -4z m308 -152 c-9 -29
-20 -52 -25 -52 -6 0 -10 4 -10 10 0 12 43 101 47 96 2 -1 -4 -26 -12 -54z
m159 -110 c6 -10 -14 -105 -21 -98 -9 9 -23 87 -18 97 7 11 32 12 39 1z m-234
-62 c0 -5 -7 -7 -15 -4 -8 4 -15 8 -15 10 0 2 7 4 15 4 8 0 15 -4 15 -10z
m-199 -152 c-5 -15 -18 -24 -37 -26 l-29 -3 35 25 c19 14 36 25 37 26 1 0 -1
-10 -6 -22z"/>
<path d="M393 2283 c-38 -3 -53 -8 -53 -19 0 -9 -10 -14 -30 -14 -16 0 -30 -4
-30 -10 0 -5 -12 -10 -26 -10 -26 0 -54 20 -54 39 0 7 -24 11 -60 11 -47 0
-60 -3 -60 -15 0 -8 -9 -15 -20 -15 -20 0 -20 -7 -20 -356 0 -295 2 -358 14
-370 21 -20 211 -20 232 0 8 8 14 19 14 25 0 6 5 11 10 11 6 0 10 87 10 241 0
272 -1 269 74 269 34 0 46 4 46 15 0 8 5 15 10 15 6 0 10 -7 10 -15 0 -8 7
-15 16 -15 41 0 44 -18 44 -264 0 -151 4 -236 10 -236 6 0 10 -7 10 -16 0 -34
26 -44 120 -44 90 0 120 10 120 39 0 6 5 11 10 11 6 0 10 98 10 275 0 177 -4
275 -10 275 -5 0 -10 14 -10 30 0 17 -4 30 -10 30 -5 0 -10 11 -10 25 0 19 -7
26 -27 31 -29 8 -53 26 -53 42 0 18 -139 25 -287 15z"/>
<path d="M1103 2283 c-29 -3 -43 -9 -43 -19 0 -8 -9 -14 -20 -14 -11 0 -20 -4
-20 -9 0 -5 -13 -11 -30 -14 -16 -4 -30 -12 -30 -20 0 -7 -9 -19 -20 -27 -11
-8 -20 -22 -20 -32 0 -10 -4 -18 -10 -18 -5 0 -10 -7 -10 -15 0 -8 -4 -15 -10
-15 -5 0 -10 -13 -10 -30 0 -16 -4 -30 -10 -30 -6 0 -10 -58 -10 -155 0 -97 4
-155 10 -155 6 0 10 -11 10 -25 0 -14 5 -25 10 -25 6 0 10 -11 10 -24 0 -16 7
-27 20 -31 11 -3 20 -11 20 -17 0 -16 41 -48 62 -48 10 0 18 -7 18 -15 0 -8 9
-15 19 -15 11 0 21 -6 24 -12 3 -10 55 -13 217 -13 162 0 214 3 218 13 2 6 17
12 33 12 19 0 29 5 29 15 0 8 5 15 10 15 6 0 10 26 10 59 0 51 -3 61 -20 66
-11 3 -20 11 -20 16 0 5 -27 9 -60 9 -33 0 -60 -4 -60 -10 0 -6 -43 -10 -110
-10 -67 0 -110 4 -110 10 0 6 -7 10 -16 10 -26 0 -44 26 -44 64 l0 36 220 0
220 0 0 150 c0 93 -4 150 -10 150 -5 0 -10 9 -10 20 0 11 -4 20 -10 20 -5 0
-10 9 -10 20 0 11 -4 20 -10 20 -5 0 -10 7 -10 15 0 8 -9 15 -19 15 -11 0 -26
7 -35 15 -8 8 -22 15 -30 15 -9 0 -16 6 -16 14 0 22 -169 32 -317 19z m195
-204 c2 -5 12 -9 23 -9 17 0 19 -8 19 -60 0 -33 -4 -60 -10 -60 -5 0 -10 5
-10 10 0 6 -37 10 -90 10 l-90 0 0 30 c0 17 5 30 10 30 6 0 10 9 10 20 0 11 5
20 10 20 6 0 10 7 10 16 0 14 8 15 58 9 31 -4 59 -11 60 -16z"/>
<path d="M3111 1896 c-7 -8 -11 -36 -9 -63 l3 -48 78 -3 c42 -2 77 -7 77 -11
0 -9 -69 -74 -114 -106 l-27 -20 16 -47 c9 -26 22 -51 28 -56 8 -6 37 -6 77
-1 36 5 142 15 235 23 l170 13 26 -31 c24 -28 29 -30 51 -18 14 8 37 23 52 35
l27 22 -33 47 c-18 26 -53 69 -76 97 l-44 51 59 0 c33 0 64 5 71 12 16 16 16
90 0 106 -19 19 -651 17 -667 -2z m409 -131 c-11 -13 -9 -20 10 -40 13 -14 22
-27 19 -29 -2 -2 -46 -6 -96 -8 l-93 -5 41 48 c38 45 44 49 86 49 40 0 44 -2
33 -15z"/>
</g>
</svg>
