<?xml version="1.0" standalone="no"?>
<!DOCTYPE svg PUBLIC "-//W3C//DTD SVG 20010904//EN"
 "http://www.w3.org/TR/2001/REC-SVG-20010904/DTD/svg10.dtd">
<svg version="1.0" xmlns="http://www.w3.org/2000/svg"
 width="256.000000pt" height="256.000000pt" viewBox="0 0 256.000000 256.000000"
 preserveAspectRatio="xMidYMid meet">
<metadata>
Created by potrace 1.14, written by Peter Selinger 2001-2017
</metadata>
<g transform="translate(0.000000,256.000000) scale(0.100000,-0.100000)"
fill="#000000" stroke="none">
<path d="M691 2287 c-18 -23 -2 -49 28 -45 20 2 26 8 26 28 0 29 -34 40 -54
17z"/>
<path d="M1850 2171 c0 -127 8 -151 51 -151 23 0 36 27 20 43 -7 7 -11 52 -11
119 l0 108 -30 0 -30 0 0 -119z"/>
<path d="M2070 2249 c0 -40 0 -40 -30 -34 -25 5 -35 1 -60 -23 -24 -25 -30
-39 -30 -75 0 -59 24 -90 71 -89 19 1 51 1 72 1 l37 1 0 130 0 130 -30 0 c-28
0 -30 -2 -30 -41z m-2 -127 c2 -31 -1 -44 -13 -48 -36 -14 -63 54 -33 84 24
24 43 9 46 -36z"/>
<path d="M440 2150 l0 -120 31 0 32 0 -6 78 -6 77 40 -77 c38 -75 41 -78 74
-78 l36 0 -3 118 -3 117 -27 3 c-27 3 -27 3 -30 -70 l-3 -73 -38 73 c-34 64
-41 72 -68 72 l-29 0 0 -120z"/>
<path d="M845 2211 c-26 -11 -51 -40 -60 -69 -10 -35 13 -90 45 -107 34 -18
49 -19 85 -5 22 8 24 13 15 30 -8 15 -17 19 -31 15 -27 -9 -49 12 -49 45 0 31
23 55 44 47 8 -3 22 3 31 13 16 17 15 19 -4 29 -23 13 -48 13 -76 2z"/>
<path d="M1010 2208 c-34 -18 -52 -56 -46 -101 5 -48 29 -75 71 -83 93 -17
150 100 81 165 -28 27 -74 35 -106 19z m65 -88 c0 -35 -4 -45 -17 -48 -27 -5
-45 41 -29 74 19 43 46 28 46 -26z"/>
<path d="M1519 2205 c-60 -32 -63 -130 -6 -165 38 -24 59 -25 97 -5 64 33 61
143 -6 171 -41 17 -52 17 -85 -1z m71 -60 c12 -31 -3 -75 -25 -75 -8 0 -21 11
-27 25 -13 30 3 75 27 75 9 0 20 -11 25 -25z"/>
<path d="M1773 2205 c-14 -10 -24 -12 -28 -5 -3 5 -15 10 -26 10 -17 0 -19 -8
-19 -90 0 -89 0 -90 25 -90 24 0 25 3 25 54 0 55 12 75 47 80 11 2 19 13 21
29 4 31 -12 35 -45 12z"/>
<path d="M690 2120 l0 -90 30 0 30 0 0 90 0 90 -30 0 -30 0 0 -90z"/>
<path d="M1173 2198 c2 -7 12 -48 22 -90 l19 -78 37 0 c36 0 37 1 43 45 4 25
11 45 15 45 5 0 12 -20 15 -45 7 -44 8 -45 45 -45 34 0 39 3 44 28 3 15 12 55
21 90 l14 62 -28 0 c-25 0 -29 -4 -35 -42 -12 -70 -21 -74 -34 -14 -12 52 -14
56 -42 56 -21 0 -29 -5 -30 -17 0 -10 -6 -36 -13 -58 l-13 -40 -12 58 c-12 54
-14 57 -43 57 -20 0 -29 -4 -25 -12z"/>
<path d="M800 1460 l0 -300 60 0 60 0 0 120 0 120 60 0 60 0 0 60 0 60 60 0
60 0 0 -60 0 -60 60 0 60 0 0 -60 0 -60 60 0 60 0 0 -60 0 -60 60 0 60 0 0 60
0 60 60 0 60 0 0 -60 0 -60 60 0 60 0 0 300 0 300 -480 0 -480 0 0 -300z m720
-120 l0 -60 -60 0 -60 0 0 60 0 60 60 0 60 0 0 -60z"/>
<path d="M1040 1220 l0 -60 60 0 60 0 0 60 0 60 -60 0 -60 0 0 -60z"/>
<path d="M970 486 c0 -21 6 -25 33 -28 l32 -3 3 -97 3 -98 29 0 30 0 0 100 0
100 30 0 c25 0 30 4 30 25 0 25 0 25 -95 25 -94 0 -95 0 -95 -24z"/>
<path d="M1254 453 c-66 -13 -92 -119 -42 -170 39 -39 92 -36 130 6 26 29 29
39 25 74 -8 61 -58 101 -113 90z m50 -69 c10 -26 7 -52 -9 -68 -26 -26 -45 -9
-45 40 0 40 2 44 24 44 13 0 27 -7 30 -16z"/>
<path d="M1490 450 c-8 -5 -30 -7 -47 -4 l-33 6 0 -131 0 -131 25 0 c22 0 25
4 25 36 0 31 3 35 23 34 42 -4 56 0 76 21 44 48 30 149 -24 169 -31 12 -27 12
-45 0z m28 -92 c-3 -38 -6 -43 -28 -43 -20 0 -26 6 -28 28 -5 42 4 57 33 57
25 0 26 -3 23 -42z"/>
</g>
</svg>
